<?xml version="1.0" encoding="UTF-8"?>
<!-- Generator: Adobe Illustrator 16.0.1, SVG Export Plug-In . SVG Version: 6.00 Build 0)  -->
<svg version="1.2" baseProfile="tiny" id="Calque_1" xmlns="http://www.w3.org/2000/svg" xmlns:xlink="http://www.w3.org/1999/xlink" x="0px" y="0px" width="400px" height="385.244px" viewBox="0 0 400 385.244" xml:space="preserve">
<g>
	<rect fill="#FFFFFF" width="400" height="385.244"/>
	<g>
		<path fill="#008AC9" d="M175.399,284.97v-0.112c0-6.591,4.726-11.974,11.534-11.974c6.813,0,11.649,5.495,11.649,12.08v0.11    c0,6.591-4.72,11.979-11.533,11.979C180.242,297.054,175.405,291.566,175.399,284.97 M207.428,284.964v-0.111    c-0.006-10.934-8.522-19.772-20.384-19.766c-11.861,0-20.484,8.955-20.484,19.888v0.105c0.006,10.928,8.517,19.767,20.383,19.767    C198.806,304.847,207.428,295.896,207.428,284.964 M139.546,321.279l0.012,22.021c0,6.1-3.134,9.229-8.294,9.229    c-5.16,0.006-8.293-3.229-8.293-9.497v-21.747h-8.461v21.971c0,11.315,6.323,17.077,16.643,17.077    c10.325,0,16.866-5.717,16.86-17.356l-0.005-21.696H139.546z M148.82,265.754l0.011,38.441h8.45l-0.005-38.441H148.82z     M158.388,321.279l0.012,38.446h8.455l-0.011-38.446H158.388z M206.944,329.067l-0.006-7.794l-31.851,0.006v7.793l11.695-0.005    l0.005,30.653h8.46l-0.005-30.653H206.944z M348.2,352.166l-20.868,0.005l-0.006-8.076l18.123-0.005v-7.52h-18.123v-7.799    l20.595-0.005v-7.521l-29,0.006l0.006,38.441l29.273-0.006V352.166z M242.127,265.739l0.007,23.662l-18.013-23.662l-7.805,0.005    l0.011,38.447l8.345-0.007v-24.44l18.619,24.435h7.197l-0.006-38.439H242.127z M254.713,321.262l0.012,38.44h8.455l-0.006-38.44    H254.713z M299.973,321.255l0.005,23.668l-18.018-23.668l-7.804,0.007l0.005,38.44l8.351-0.006l-0.007-24.437l18.625,24.432h7.197    l-0.005-38.441L299.973,321.255z M221.439,343.622l5.108-12.474l5.104,12.468L221.439,343.622z M222.751,320.983l-16.471,38.725    h8.628l3.513-8.622h16.254l3.518,8.622l8.845-0.005l-16.482-38.72H222.751z M36.631,343.655l5.104-12.474l5.104,12.469    L36.631,343.655z M37.945,321.022l-16.476,38.725h8.627l3.513-8.627l16.259-0.006l3.519,8.628h8.839l-16.482-38.72H37.945z     M41.614,273.402c4.118,0,6.646,1.871,6.646,5.495v0.11c0,3.241-2.36,5.439-6.479,5.439h-8.566v-11.045H41.614z M33.22,304.217    l-0.005-12.301h6.535h0.111l8.238,12.301l9.886-0.005l-9.391-13.727c4.888-1.814,8.233-5.712,8.233-11.923v-0.105    c0-3.629-1.152-6.653-3.301-8.789c-2.521-2.522-6.312-3.903-11.2-3.897l-17.578,0.007l0.012,38.439H33.22z M95.111,304.212v-7.532    l-20.868,0.007v-8.077h18.124l-0.005-7.525H74.243l-0.012-7.793l20.596-0.005v-7.526l-28.995,0.005l0.005,38.447H95.111z     M89.116,256.147l-7.191-3.127l-6.207,9.723h6.373L89.116,256.147z M97.376,340.622c0,1.92-0.333,3.679-1.046,5.271l-6.312-5.712    l-5.383,6.046l6.263,5.32c-1.486,0.662-3.189,1.052-5.055,1.052c-6.807,0-11.645-5.498-11.645-12.084v-0.11    c-0.005-6.596,4.72-11.974,11.533-11.974s11.645,5.493,11.645,12.084V340.622z M106.216,340.51v-0.112    c0-10.932-8.517-19.771-20.383-19.765c-11.862,0-20.479,8.956-20.479,19.882v0.112c0.005,10.926,8.517,19.765,20.383,19.765    c4.281,0,8.183-1.213,11.422-3.3l4.23,3.791l5.377-5.989l-3.953-3.347C105.008,348.364,106.216,344.518,106.216,340.51     M138.94,298.763l-0.005-16.7l-16.693,0.006v7.304h8.51v5.488c-2.143,1.542-4.881,2.311-7.959,2.311    c-6.813,0-11.645-5.166-11.65-12.19v-0.112c0-6.528,4.888-11.967,11.038-11.967c4.447,0,7.086,1.42,10.059,3.891l5.321-6.429    c-4.008-3.401-8.177-5.266-15.101-5.266c-11.645,0-20.155,8.957-20.155,19.883v0.111c0.005,11.371,8.243,19.771,20.216,19.771    C129.544,304.863,134.983,302.113,138.94,298.763"/>
		<path fill="#008AC9" d="M125.871,197.245c31.032-40.679,51.382-128.726,51.382-151.013h23.796c0.629-7.203,1.107-14.5,1.447-21.87    H22.911v199.223h113.29c7.059-7.598,13.682-16.432,19.822-26.34H125.871z"/>
		<path fill="#17A345" d="M259.072,175.88l-4.933-11.911c21.275,5.885,69.896,13.197,93.865,11.684l10.486,20.541    C345.316,196.194,275.174,182.338,259.072,175.88 M247.205,147.689c26.066,1.073,56.76,0.651,83.783-5.801l9.563,19.464    c-15.892,3.547-68.777,1.075-89.055-3.606L247.205,147.689z M240.168,130.421c11.796,0.458,56.047-8.483,74.794-20.322    l9.597,18.803c-7.131,4.458-47.764,14.75-79.703,12.735L240.168,130.421z M234.101,116.155    c12.118-2.928,50.297-20.345,65.744-36.643l8.009,15.836c-7.18,7.008-33.492,22.371-69.906,29.735L234.101,116.155z     M227.868,101.232c14.243-8.25,46.901-40.272,55.401-54.789l8.928,17.183c-5.494,7.208-32.452,34.945-60.321,47.342    L227.868,101.232z M183.098,136.984c-5.521-3.88-9.947-7.18-11.767-8.612l28.877-11.192l16.416,39.537    C208.668,154.223,193.812,144.51,183.098,136.984 M202.497,24.361c-0.346,7.37-0.825,14.667-1.442,21.87l63.289,151.013h-26.779    L194.441,93.89c-0.746,3.773-1.536,7.504-2.376,11.198c-1.019,4.659-2.171,9.642-3.073,12.546    c-0.083,0.269-0.06,0.217-0.139,0.447l-24.58,9.49l17.906,13.236c-0.417,1.213-0.996,2.829-1.676,4.67    c-0.957,2.588-2.159,5.738-3.573,9.252c-4.676,11.989-9.886,23.189-15.563,33.419c-1.737,3.15-3.518,6.212-5.338,9.095    c-6.145,9.908-12.769,18.742-19.827,26.346H378.53V24.361H202.497z"/>
	</g>
</g>
</svg>